<svg width="40" height="41" viewBox="0 0 40 41" fill="none" xmlns="http://www.w3.org/2000/svg">
<path d="M19.9999 3.83337C10.7999 3.83337 3.33325 11.3 3.33325 20.5C3.33325 29.7 10.7999 37.1667 19.9999 37.1667C29.1999 37.1667 36.6666 29.7 36.6666 20.5C36.6666 11.3 29.1999 3.83337 19.9999 3.83337ZM12.2499 31.3334C14.4333 29.7667 17.0999 28.8334 19.9999 28.8334C22.8999 28.8334 25.5666 29.7667 27.7499 31.3334C25.5666 32.9 22.8999 33.8334 19.9999 33.8334C17.0999 33.8334 14.4333 32.9 12.2499 31.3334ZM30.2332 29.0334C27.3139 26.7429 23.7106 25.498 19.9999 25.498C16.2893 25.498 12.6859 26.7429 9.76659 29.0334C7.76145 26.6423 6.66375 23.6206 6.66659 20.5C6.66659 13.1334 12.6333 7.16671 19.9999 7.16671C27.3666 7.16671 33.3333 13.1334 33.3333 20.5C33.3333 23.75 32.1666 26.7167 30.2332 29.0334Z" fill="#1C1C1C"/>
<path d="M20.0001 10.5C16.7834 10.5 14.1667 13.1167 14.1667 16.3333C14.1667 19.55 16.7834 22.1667 20.0001 22.1667C23.2167 22.1667 25.8334 19.55 25.8334 16.3333C25.8334 13.1167 23.2167 10.5 20.0001 10.5ZM20.0001 18.8333C18.6167 18.8333 17.5001 17.7167 17.5001 16.3333C17.5001 14.95 18.6167 13.8333 20.0001 13.8333C21.3834 13.8333 22.5001 14.95 22.5001 16.3333C22.5001 17.7167 21.3834 18.8333 20.0001 18.8333Z" fill="#1C1C1C"/>
</svg>
